<mxfile host="app.diagrams.net" agent="Mozilla/5.0 (Windows NT 10.0; Win64; x64) AppleWebKit/537.36 (KHTML, like Gecko) Chrome/135.0.0.0 Safari/537.36" version="26.2.14">
  <diagram id="C5RBs43oDa-KdzZeNtuy" name="Page-1">
    <mxGraphModel dx="2253" dy="785" grid="1" gridSize="10" guides="1" tooltips="1" connect="1" arrows="1" fold="1" page="1" pageScale="1" pageWidth="827" pageHeight="1169" math="0" shadow="0">
      <root>
        <mxCell id="WIyWlLk6GJQsqaUBKTNV-0" />
        <mxCell id="WIyWlLk6GJQsqaUBKTNV-1" parent="WIyWlLk6GJQsqaUBKTNV-0" />
        <mxCell id="68qzj23E0zRb1M-Sqcc6-23" value="" style="edgeStyle=orthogonalEdgeStyle;rounded=0;orthogonalLoop=1;jettySize=auto;html=1;" edge="1" parent="WIyWlLk6GJQsqaUBKTNV-1" source="68qzj23E0zRb1M-Sqcc6-19" target="68qzj23E0zRb1M-Sqcc6-22">
          <mxGeometry relative="1" as="geometry" />
        </mxCell>
        <mxCell id="68qzj23E0zRb1M-Sqcc6-19" value="Enter Homepage" style="rounded=1;whiteSpace=wrap;html=1;fillColor=#b1ddf0;strokeColor=#10739e;" vertex="1" parent="WIyWlLk6GJQsqaUBKTNV-1">
          <mxGeometry x="-580" y="140" width="220" height="90" as="geometry" />
        </mxCell>
        <mxCell id="68qzj23E0zRb1M-Sqcc6-26" value="" style="edgeStyle=orthogonalEdgeStyle;rounded=0;orthogonalLoop=1;jettySize=auto;html=1;" edge="1" parent="WIyWlLk6GJQsqaUBKTNV-1" source="68qzj23E0zRb1M-Sqcc6-22" target="68qzj23E0zRb1M-Sqcc6-25">
          <mxGeometry relative="1" as="geometry" />
        </mxCell>
        <mxCell id="68qzj23E0zRb1M-Sqcc6-27" value="No" style="edgeLabel;html=1;align=center;verticalAlign=middle;resizable=0;points=[];" vertex="1" connectable="0" parent="68qzj23E0zRb1M-Sqcc6-26">
          <mxGeometry x="-0.5265" y="-1" relative="1" as="geometry">
            <mxPoint as="offset" />
          </mxGeometry>
        </mxCell>
        <mxCell id="68qzj23E0zRb1M-Sqcc6-45" value="" style="edgeStyle=orthogonalEdgeStyle;rounded=0;orthogonalLoop=1;jettySize=auto;html=1;" edge="1" parent="WIyWlLk6GJQsqaUBKTNV-1" source="68qzj23E0zRb1M-Sqcc6-22" target="68qzj23E0zRb1M-Sqcc6-44">
          <mxGeometry relative="1" as="geometry" />
        </mxCell>
        <mxCell id="68qzj23E0zRb1M-Sqcc6-22" value="Do You Have&lt;br&gt;&amp;nbsp;Store" style="rhombus;whiteSpace=wrap;html=1;" vertex="1" parent="WIyWlLk6GJQsqaUBKTNV-1">
          <mxGeometry x="-535" y="280" width="130" height="110" as="geometry" />
        </mxCell>
        <mxCell id="68qzj23E0zRb1M-Sqcc6-43" style="edgeStyle=orthogonalEdgeStyle;rounded=0;orthogonalLoop=1;jettySize=auto;html=1;entryX=0.5;entryY=0;entryDx=0;entryDy=0;" edge="1" parent="WIyWlLk6GJQsqaUBKTNV-1" source="68qzj23E0zRb1M-Sqcc6-25" target="68qzj23E0zRb1M-Sqcc6-38">
          <mxGeometry relative="1" as="geometry" />
        </mxCell>
        <mxCell id="68qzj23E0zRb1M-Sqcc6-25" value="Create New Account" style="whiteSpace=wrap;html=1;" vertex="1" parent="WIyWlLk6GJQsqaUBKTNV-1">
          <mxGeometry x="-360" y="390" width="120" height="37.5" as="geometry" />
        </mxCell>
        <mxCell id="68qzj23E0zRb1M-Sqcc6-37" value="" style="edgeStyle=orthogonalEdgeStyle;rounded=0;orthogonalLoop=1;jettySize=auto;html=1;" edge="1" parent="WIyWlLk6GJQsqaUBKTNV-1" source="68qzj23E0zRb1M-Sqcc6-38" target="68qzj23E0zRb1M-Sqcc6-40">
          <mxGeometry relative="1" as="geometry" />
        </mxCell>
        <mxCell id="68qzj23E0zRb1M-Sqcc6-38" value="Create new&amp;nbsp;instance of website and DB" style="rounded=0;whiteSpace=wrap;html=1;" vertex="1" parent="WIyWlLk6GJQsqaUBKTNV-1">
          <mxGeometry x="-360" y="490" width="120" height="40" as="geometry" />
        </mxCell>
        <mxCell id="68qzj23E0zRb1M-Sqcc6-39" value="" style="edgeStyle=orthogonalEdgeStyle;rounded=0;orthogonalLoop=1;jettySize=auto;html=1;" edge="1" parent="WIyWlLk6GJQsqaUBKTNV-1" source="68qzj23E0zRb1M-Sqcc6-40" target="68qzj23E0zRb1M-Sqcc6-41">
          <mxGeometry relative="1" as="geometry" />
        </mxCell>
        <mxCell id="68qzj23E0zRb1M-Sqcc6-40" value="Enter Your Domain" style="shape=parallelogram;perimeter=parallelogramPerimeter;whiteSpace=wrap;html=1;fixedSize=1;rounded=0;" vertex="1" parent="WIyWlLk6GJQsqaUBKTNV-1">
          <mxGeometry x="-400" y="570" width="170" height="40" as="geometry" />
        </mxCell>
        <mxCell id="68qzj23E0zRb1M-Sqcc6-41" value="Link Doamin to Website" style="whiteSpace=wrap;html=1;rounded=0;" vertex="1" parent="WIyWlLk6GJQsqaUBKTNV-1">
          <mxGeometry x="-385" y="650" width="120" height="40" as="geometry" />
        </mxCell>
        <mxCell id="68qzj23E0zRb1M-Sqcc6-44" value="Login to You Dashboard" style="whiteSpace=wrap;html=1;" vertex="1" parent="WIyWlLk6GJQsqaUBKTNV-1">
          <mxGeometry x="-740" y="310" width="120" height="40" as="geometry" />
        </mxCell>
      </root>
    </mxGraphModel>
  </diagram>
</mxfile>
